<?xml version="1.0" encoding="UTF-8"?>
<!DOCTYPE svg PUBLIC "-//W3C//DTD SVG 1.1//EN" "http://www.w3.org/Graphics/SVG/1.1/DTD/svg11.dtd">
<svg xmlns="http://www.w3.org/2000/svg" version="1.1" width="502px" height="497px" style="shape-rendering:geometricPrecision; text-rendering:geometricPrecision; image-rendering:optimizeQuality; fill-rule:evenodd; clip-rule:evenodd" xmlns:xlink="http://www.w3.org/1999/xlink">
<g><path style="opacity:1" fill="#1c315c" d="M 405.5,60.5 C 405.973,61.9063 406.973,62.573 408.5,62.5C 476.967,120.69 506.134,194.69 496,284.5C 478.224,376.609 426.057,440.443 339.5,476C 275.794,498.109 212.794,496.443 150.5,471C 102.292,448.465 64.4585,414.298 37,368.5C 33.549,361.933 30.3823,355.266 27.5,348.5C 27.573,346.973 26.9063,345.973 25.5,345.5C -2.42461,280.821 -2.42461,216.154 25.5,151.5C 26.9063,151.027 27.573,150.027 27.5,148.5C 49.4953,100.668 83.4953,63.8347 129.5,38C 205.226,-1.57134 282.226,-3.90467 360.5,31C 376.628,39.3785 391.628,49.2119 405.5,60.5 Z M 451.5,212.5 C 451.549,216.078 452.215,219.411 453.5,222.5C 455.073,242.876 454.739,263.209 452.5,283.5C 451.087,286.219 450.42,289.219 450.5,292.5C 432.171,362.523 389.171,411.023 321.5,438C 238.556,464.024 166.056,447.191 104,387.5C 53.6766,331.868 38.01,267.535 57,194.5C 72.3076,147.724 100.474,111.057 141.5,84.5C 143.332,83.7515 144.999,82.7515 146.5,81.5C 148.027,81.573 149.027,80.9063 149.5,79.5C 158.872,74.0527 168.538,69.386 178.5,65.5C 237.958,44.9399 295.624,49.1066 351.5,78C 389.251,99.9368 417.751,130.437 437,169.5C 442.967,183.568 447.8,197.902 451.5,212.5 Z"/></g>
<g><path style="opacity:0.004" fill="#b8d1dc" d="M 405.5,60.5 C 407.027,60.427 408.027,61.0937 408.5,62.5C 406.973,62.573 405.973,61.9063 405.5,60.5 Z"/></g>
<g><path style="opacity:1" fill="#364264" d="M 178.5,65.5 C 168.538,69.386 158.872,74.0527 149.5,79.5C 147.973,79.427 146.973,80.0937 146.5,81.5C 144.999,82.7515 143.332,83.7515 141.5,84.5C 141.5,83.5 141.5,82.5 141.5,81.5C 146.697,80.7332 149.03,77.7332 148.5,72.5C 152.015,72.2879 155.348,72.2879 158.5,72.5C 164.643,68.632 171.31,66.2987 178.5,65.5 Z"/></g>
<g><path style="opacity:0.004" fill="#cfd5e6" d="M 149.5,79.5 C 149.027,80.9063 148.027,81.573 146.5,81.5C 146.973,80.0937 147.973,79.427 149.5,79.5 Z"/></g>
<g><path style="opacity:0.396" fill="#686e89" d="M 247.5,99.5 C 246.85,99.1961 246.183,98.8627 245.5,98.5C 244.52,101.086 244.187,103.753 244.5,106.5C 242.865,102.012 242.531,97.3455 243.5,92.5C 245.6,94.3637 246.933,96.6971 247.5,99.5 Z"/></g>
<g><path style="opacity:0.235" fill="#aeb3bd" d="M 363.5,140.5 C 363.56,139.957 363.893,139.624 364.5,139.5C 365.797,141.973 365.797,144.307 364.5,146.5C 364.795,144.265 364.461,142.265 363.5,140.5 Z"/></g>
<g><path style="opacity:0.051" fill="#b8c5d5" d="M 27.5,148.5 C 27.573,150.027 26.9063,151.027 25.5,151.5C 25.427,149.973 26.0937,148.973 27.5,148.5 Z"/></g>
<g><path style="opacity:1" fill="#1e325d" d="M 247.5,99.5 C 254.119,112.412 259.952,125.746 265,139.5C 265.667,141.833 265.667,144.167 265,146.5C 260.323,157.374 256.49,168.541 253.5,180C 255.14,185.778 257.974,190.944 262,195.5C 263.026,200.785 263.693,206.118 264,211.5C 264.725,213.949 265.725,216.283 267,218.5C 275.154,209.682 283.987,201.516 293.5,194C 303.167,193.667 312.833,193.333 322.5,193C 323.244,191.961 324.244,191.461 325.5,191.5C 326.833,190.833 327.833,189.833 328.5,188.5C 329.833,188.5 331.167,188.5 332.5,188.5C 332.351,189.552 332.517,190.552 333,191.5C 331.715,185.051 334.215,181.384 340.5,180.5C 341.521,178.381 343.021,176.714 345,175.5C 345.483,174.552 345.649,173.552 345.5,172.5C 347.103,172.312 348.437,172.812 349.5,174C 348.57,175.194 347.903,176.527 347.5,178C 348.958,179.752 350.291,181.585 351.5,183.5C 350.123,185.289 349.123,187.289 348.5,189.5C 349.167,189.833 349.833,190.167 350.5,190.5C 349.873,191.417 349.539,192.417 349.5,193.5C 348.639,195.386 347.639,197.22 346.5,199C 353.491,202.156 360.491,204.99 367.5,207.5C 367.5,208.5 367.5,209.5 367.5,210.5C 359.648,210.175 351.982,210.508 344.5,211.5C 332.837,215.187 320.837,217.02 308.5,217C 305.624,217.438 302.957,218.438 300.5,220C 294.016,231.634 288.349,243.634 283.5,256C 283.615,257.895 284.282,259.562 285.5,261C 293.307,263.619 301.307,265.285 309.5,266C 324.167,278 338.833,290 353.5,302C 351.833,302.667 350.167,302.667 348.5,302C 335.388,295.776 322.055,290.11 308.5,285C 297.167,284.333 285.833,284.333 274.5,285C 270.934,289.333 267.267,293.499 263.5,297.5C 263.631,296.761 263.464,296.094 263,295.5C 260.821,296.116 258.988,297.283 257.5,299C 257.467,304.293 259.3,308.793 263,312.5C 263.483,313.448 263.649,314.448 263.5,315.5C 258.894,315.712 254.894,314.378 251.5,311.5C 246.282,310.811 241.116,310.144 236,309.5C 234.731,310.905 234.231,312.571 234.5,314.5C 232.409,314.318 230.409,314.652 228.5,315.5C 226.568,314.855 225.401,313.521 225,311.5C 225.149,315.483 225.649,319.483 226.5,323.5C 227.332,328.497 225.332,330.831 220.5,330.5C 220.441,327.951 221.441,325.951 223.5,324.5C 222.066,321.208 219.899,320.874 217,323.5C 214.91,320.983 213.077,320.983 211.5,323.5C 203.092,322.88 194.759,321.546 186.5,319.5C 185.086,320.624 183.586,321.624 182,322.5C 179.82,328.188 177.653,333.854 175.5,339.5C 173.896,340.287 173.229,341.62 173.5,343.5C 172.438,346.516 171.271,349.516 170,352.5C 168.285,346.52 167.118,340.353 166.5,334C 166.392,332.319 165.725,331.152 164.5,330.5C 161.262,331.395 158.095,331.395 155,330.5C 155.019,332.107 155.185,333.774 155.5,335.5C 152.441,335.558 150.108,336.892 148.5,339.5C 145.215,340.324 141.882,340.824 138.5,341C 139.448,341.483 140.448,341.649 141.5,341.5C 141.5,342.5 141.5,343.5 141.5,344.5C 140.167,344.5 138.833,344.5 137.5,344.5C 137.5,345.5 137.5,346.5 137.5,347.5C 136.325,347.719 135.325,347.386 134.5,346.5C 136.472,344.585 137.472,342.251 137.5,339.5C 139.638,339.297 141.305,338.297 142.5,336.5C 143.293,336.931 144.127,337.265 145,337.5C 146.762,336.409 148.596,335.409 150.5,334.5C 149.975,333.808 149.308,333.308 148.5,333C 149.357,332.311 150.023,331.478 150.5,330.5C 149.147,329.476 148.48,328.143 148.5,326.5C 155.837,316.651 164.171,307.485 173.5,299C 175.39,297.888 177.39,297.054 179.5,296.5C 189.249,299.941 199.249,301.441 209.5,301C 219.997,295.252 230.33,289.252 240.5,283C 245.442,278.286 249.275,272.786 252,266.5C 252.738,262.739 252.405,259.072 251,255.5C 244.314,248.315 237.814,240.982 231.5,233.5C 227.667,231.37 223.667,229.536 219.5,228C 202.115,228.076 186.448,223.076 172.5,213C 180.659,213.218 188.826,213.718 197,214.5C 208.363,214.284 219.196,211.784 229.5,207C 231.874,204.961 233.874,202.628 235.5,200C 232.465,190.751 231.298,181.251 232,171.5C 239.16,160.846 244.994,149.512 249.5,137.5C 247.706,127.197 246.04,116.864 244.5,106.5C 244.187,103.753 244.52,101.086 245.5,98.5C 246.183,98.8627 246.85,99.1961 247.5,99.5 Z"/></g>
<g><path style="opacity:1" fill="#20325c" d="M 363.5,140.5 C 364.461,142.265 364.795,144.265 364.5,146.5C 363.676,150.799 363.009,155.133 362.5,159.5C 362.572,161.56 362.905,163.56 363.5,165.5C 372.482,166.332 381.482,166.832 390.5,167C 393.7,167.101 396.7,167.768 399.5,169C 394.072,171.864 388.405,174.03 382.5,175.5C 381.152,174.814 379.985,173.814 379,172.5C 378.89,174.848 377.723,176.348 375.5,177C 372.469,177.495 369.469,177.329 366.5,176.5C 366.649,177.552 366.483,178.552 366,179.5C 363.323,180.92 360.656,182.253 358,183.5C 355.761,182.909 353.594,182.242 351.5,181.5C 351.178,179.278 351.845,177.444 353.5,176C 350.949,173.393 349.616,170.226 349.5,166.5C 352.887,157.121 357.553,148.455 363.5,140.5 Z"/></g>
<g><path style="opacity:1" fill="#2d3d62" d="M 349.5,166.5 C 349.616,170.226 350.949,173.393 353.5,176C 351.845,177.444 351.178,179.278 351.5,181.5C 353.594,182.242 355.761,182.909 358,183.5C 360.656,182.253 363.323,180.92 366,179.5C 366.483,178.552 366.649,177.552 366.5,176.5C 369.469,177.329 372.469,177.495 375.5,177C 377.723,176.348 378.89,174.848 379,172.5C 379.985,173.814 381.152,174.814 382.5,175.5C 374.035,179.223 365.369,182.723 356.5,186C 353.595,188.086 351.262,190.586 349.5,193.5C 349.539,192.417 349.873,191.417 350.5,190.5C 349.833,190.167 349.167,189.833 348.5,189.5C 349.123,187.289 350.123,185.289 351.5,183.5C 350.291,181.585 348.958,179.752 347.5,178C 347.903,176.527 348.57,175.194 349.5,174C 348.437,172.812 347.103,172.312 345.5,172.5C 345.649,173.552 345.483,174.552 345,175.5C 343.021,176.714 341.521,178.381 340.5,180.5C 334.215,181.384 331.715,185.051 333,191.5C 332.517,190.552 332.351,189.552 332.5,188.5C 331.167,188.5 329.833,188.5 328.5,188.5C 331.406,184.362 334.073,180.029 336.5,175.5C 341.776,173.709 346.109,170.709 349.5,166.5 Z"/></g>
<g><path style="opacity:0.133" fill="#b1b6c7" d="M 328.5,188.5 C 327.833,189.833 326.833,190.833 325.5,191.5C 325.5,189.5 326.5,188.5 328.5,188.5 Z"/></g>
<g><path style="opacity:0.467" fill="#434c6a" d="M 367.5,207.5 C 370.789,208.374 374.123,209.041 377.5,209.5C 377.5,210.5 377.5,211.5 377.5,212.5C 366.518,211.714 355.518,211.381 344.5,211.5C 351.982,210.508 359.648,210.175 367.5,210.5C 367.5,209.5 367.5,208.5 367.5,207.5 Z"/></g>
<g><path style="opacity:0.169" fill="#838da1" d="M 451.5,212.5 C 453.011,215.544 453.678,218.878 453.5,222.5C 452.215,219.411 451.549,216.078 451.5,212.5 Z"/></g>
<g><path style="opacity:0.173" fill="#a6b1c6" d="M 452.5,283.5 C 452.58,286.781 451.913,289.781 450.5,292.5C 450.42,289.219 451.087,286.219 452.5,283.5 Z"/></g>
<g><path style="opacity:0.984" fill="#2e3b5e" d="M 263.5,297.5 C 262.906,299.855 261.906,302.022 260.5,304C 263.585,309.932 266.918,315.765 270.5,321.5C 270.192,322.308 269.692,322.975 269,323.5C 264.203,321.52 259.703,319.187 255.5,316.5C 255.027,315.094 254.027,314.427 252.5,314.5C 248.355,312.65 244.021,312.15 239.5,313C 235.884,314.811 232.217,316.311 228.5,317.5C 228.041,324.512 227.374,331.512 226.5,338.5C 221.812,333.146 216.812,328.146 211.5,323.5C 213.077,320.983 214.91,320.983 217,323.5C 219.899,320.874 222.066,321.208 223.5,324.5C 221.441,325.951 220.441,327.951 220.5,330.5C 225.332,330.831 227.332,328.497 226.5,323.5C 225.649,319.483 225.149,315.483 225,311.5C 225.401,313.521 226.568,314.855 228.5,315.5C 230.409,314.652 232.409,314.318 234.5,314.5C 234.231,312.571 234.731,310.905 236,309.5C 241.116,310.144 246.282,310.811 251.5,311.5C 254.894,314.378 258.894,315.712 263.5,315.5C 263.649,314.448 263.483,313.448 263,312.5C 259.3,308.793 257.467,304.293 257.5,299C 258.988,297.283 260.821,296.116 263,295.5C 263.464,296.094 263.631,296.761 263.5,297.5 Z"/></g>
<g><path style="opacity:0.059" fill="#b5bac8" d="M 252.5,314.5 C 254.027,314.427 255.027,315.094 255.5,316.5C 253.973,316.573 252.973,315.906 252.5,314.5 Z"/></g>
<g><path style="opacity:1" fill="#374366" d="M 148.5,326.5 C 148.48,328.143 149.147,329.476 150.5,330.5C 150.023,331.478 149.357,332.311 148.5,333C 149.308,333.308 149.975,333.808 150.5,334.5C 148.596,335.409 146.762,336.409 145,337.5C 144.127,337.265 143.293,336.931 142.5,336.5C 141.305,338.297 139.638,339.297 137.5,339.5C 137.472,342.251 136.472,344.585 134.5,346.5C 135.325,347.386 136.325,347.719 137.5,347.5C 137.5,346.5 137.5,345.5 137.5,344.5C 138.833,344.5 140.167,344.5 141.5,344.5C 141.5,343.5 141.5,342.5 141.5,341.5C 140.448,341.649 139.448,341.483 138.5,341C 141.882,340.824 145.215,340.324 148.5,339.5C 150.108,336.892 152.441,335.558 155.5,335.5C 155.185,333.774 155.019,332.107 155,330.5C 158.095,331.395 161.262,331.395 164.5,330.5C 151.561,339.077 138.561,347.744 125.5,356.5C 124.417,355.635 124.251,354.635 125,353.5C 131.437,344.945 138.104,336.612 145,328.5C 146.113,327.695 147.279,327.028 148.5,326.5 Z"/></g>
<g><path style="opacity:0.102" fill="#b1ccda" d="M 175.5,339.5 C 175.34,341.153 174.674,342.486 173.5,343.5C 173.229,341.62 173.896,340.287 175.5,339.5 Z"/></g>
<g><path style="opacity:0.047" fill="#bfc1d3" d="M 25.5,345.5 C 26.9063,345.973 27.573,346.973 27.5,348.5C 26.0937,348.027 25.427,347.027 25.5,345.5 Z"/></g>
</svg>
